<svg data-v-423bf9ae="" xmlns="http://www.w3.org/2000/svg" viewBox="0 0 1810.8251473719947 193" class="fontAboveSlogan"><!----><!----><!----><g data-v-423bf9ae="" id="fa060626-942a-4bcf-959e-4d4494b2fcb0" fill="black" transform="matrix(12.2448977208644,0,0,12.2448977208644,512.1489789386383,-29.55000138282776)"><path d="M0.70 10.23L0.70 10.23L0.70 9.32L0.70 9.32Q0.70 9.10 0.92 9.10L0.92 9.10L2.34 9.10L2.34 9.10Q2.56 9.10 2.56 9.32L2.56 9.32L2.56 9.91L2.56 9.91Q2.56 10.47 3.12 10.47L3.12 10.47L3.88 10.47L3.88 10.47Q4.44 10.47 4.44 9.91L4.44 9.91L4.44 8.50L1.08 7.40L1.08 7.40Q0.70 7.28 0.70 6.89L0.70 6.89L0.70 4.46L0.70 4.46Q0.70 3.48 1.22 2.96L1.22 2.96L1.22 2.96Q1.74 2.45 2.71 2.45L2.71 2.45L4.29 2.45L4.29 2.45Q5.28 2.45 5.79 2.96L5.79 2.96L5.79 2.96Q6.30 3.47 6.30 4.46L6.30 4.46L6.30 5.39L6.30 5.39Q6.30 5.61 6.08 5.61L6.08 5.61L4.66 5.61L4.66 5.61Q4.56 5.61 4.50 5.55L4.50 5.55L4.50 5.55Q4.44 5.49 4.44 5.39L4.44 5.39L4.44 4.80L4.44 4.80Q4.44 4.25 3.88 4.25L3.88 4.25L3.11 4.25L3.11 4.25Q2.84 4.25 2.70 4.39L2.70 4.39L2.70 4.39Q2.55 4.53 2.55 4.80L2.55 4.80L2.55 6.00L5.93 7.08L5.93 7.08Q6.30 7.21 6.30 7.60L6.30 7.60L6.30 10.23L6.30 10.23Q6.30 11.22 5.79 11.74L5.79 11.74L5.79 11.74Q5.28 12.25 4.29 12.25L4.29 12.25L2.71 12.25L2.71 12.25Q1.74 12.25 1.22 11.73L1.22 11.73L1.22 11.73Q0.70 11.22 0.70 10.23ZM7 2.67L7 4.07L7 4.07Q7 4.18 7.06 4.24L7.06 4.24L7.06 4.24Q7.12 4.30 7.23 4.30L7.23 4.30L8.85 4.30L8.85 12.02L8.85 12.02Q8.85 12.25 9.08 12.25L9.08 12.25L10.53 12.25L10.53 12.25Q10.75 12.25 10.75 12.02L10.75 12.02L10.75 4.30L12.38 4.30L12.38 4.30Q12.61 4.30 12.61 4.07L12.61 4.07L12.61 2.67L12.61 2.67Q12.61 2.45 12.38 2.45L12.38 2.45L7.23 2.45L7.23 2.45Q7.12 2.45 7.06 2.51L7.06 2.51L7.06 2.51Q7 2.57 7 2.67L7 2.67ZM13.72 12.02L13.72 12.02L13.72 2.67L13.72 2.67Q13.72 2.57 13.78 2.51L13.78 2.51L13.78 2.51Q13.84 2.45 13.95 2.45L13.95 2.45L17.31 2.45L17.31 2.45Q18.30 2.45 18.81 2.96L18.81 2.96L18.81 2.96Q19.33 3.47 19.33 4.46L19.33 4.46L19.33 7.28L19.33 7.28Q19.33 8.50 18.54 8.99L18.54 8.99L19.26 12.00L19.26 12.00Q19.33 12.25 19.07 12.25L19.07 12.25L17.70 12.25L17.70 12.25Q17.50 12.25 17.46 12.05L17.46 12.05L16.79 9.30L15.54 9.30L15.54 12.02L15.54 12.02Q15.54 12.13 15.48 12.19L15.48 12.19L15.48 12.19Q15.42 12.25 15.32 12.25L15.32 12.25L13.95 12.25L13.95 12.25Q13.84 12.25 13.78 12.19L13.78 12.19L13.78 12.19Q13.72 12.13 13.72 12.02ZM15.54 4.26L15.54 7.49L16.94 7.49L16.94 7.49Q17.50 7.49 17.50 6.93L17.50 6.93L17.50 4.82L17.50 4.82Q17.50 4.26 16.94 4.26L16.94 4.26L15.54 4.26ZM20.72 12.02L20.72 12.02L20.72 2.67L20.72 2.67Q20.72 2.57 20.78 2.51L20.78 2.51L20.78 2.51Q20.84 2.45 20.93 2.45L20.93 2.45L26.09 2.45L26.09 2.45Q26.31 2.45 26.31 2.67L26.31 2.67L26.31 4.07L26.31 4.07Q26.31 4.31 26.09 4.31L26.09 4.31L22.63 4.31L22.63 6.47L25.26 6.47L25.26 6.47Q25.48 6.47 25.48 6.71L25.48 6.71L25.48 8.09L25.48 8.09Q25.48 8.33 25.26 8.33L25.26 8.33L22.63 8.33L22.63 10.40L26.09 10.40L26.09 10.40Q26.22 10.40 26.26 10.45L26.26 10.45L26.26 10.45Q26.31 10.50 26.31 10.62L26.31 10.62L26.31 12.02L26.31 12.02Q26.31 12.25 26.09 12.25L26.09 12.25L20.93 12.25L20.93 12.25Q20.84 12.25 20.78 12.19L20.78 12.19L20.78 12.19Q20.72 12.13 20.72 12.02ZM27.15 12.01L27.15 12.01L29.48 2.65L29.48 2.65Q29.52 2.45 29.72 2.45L29.72 2.45L31.66 2.45L31.66 2.45Q31.86 2.45 31.90 2.65L31.90 2.65L34.23 12.01L34.23 12.01Q34.24 12.06 34.24 12.09L34.24 12.09L34.24 12.09Q34.24 12.25 34.03 12.25L34.03 12.25L32.67 12.25L32.67 12.25Q32.49 12.25 32.45 12.05L32.45 12.05L32.00 10.29L29.37 10.29L28.94 12.05L28.94 12.05Q28.90 12.25 28.71 12.25L28.71 12.25L27.34 12.25L27.34 12.25Q27.14 12.25 27.14 12.10L27.14 12.10L27.14 12.10Q27.14 12.06 27.15 12.01ZM30.69 4.86L29.80 8.67L31.57 8.67L30.69 4.86ZM35.08 11.97L35.08 11.97L35.08 2.73L35.08 2.73Q35.08 2.45 35.36 2.45L35.36 2.45L37.21 2.45L37.21 2.45Q37.45 2.45 37.52 2.69L37.52 2.69L39.07 8.93L40.62 2.69L40.62 2.69Q40.68 2.45 40.93 2.45L40.93 2.45L42.78 2.45L42.78 2.45Q43.06 2.45 43.06 2.73L43.06 2.73L43.06 11.97L43.06 11.97Q43.06 12.25 42.78 12.25L42.78 12.25L41.47 12.25L41.47 12.25Q41.19 12.25 41.19 11.97L41.19 11.97L41.19 6.47L41.10 6.47L39.79 12.01L39.79 12.01Q39.72 12.25 39.47 12.25L39.47 12.25L38.65 12.25L38.65 12.25Q38.40 12.25 38.34 12.01L38.34 12.01L37.02 6.47L36.93 6.47L36.93 11.97L36.93 11.97Q36.93 12.25 36.65 12.25L36.65 12.25L35.36 12.25L35.36 12.25Q35.08 12.25 35.08 11.97ZM44.45 2.67L44.45 12.02L44.45 12.02Q44.45 12.25 44.68 12.25L44.68 12.25L49.13 12.25L49.13 12.25Q49.36 12.25 49.36 12.02L49.36 12.02L49.36 10.62L49.36 10.62Q49.36 10.40 49.13 10.40L49.13 10.40L46.36 10.40L46.36 2.67L46.36 2.67Q46.36 2.45 46.14 2.45L46.14 2.45L44.68 2.45L44.68 2.45Q44.58 2.45 44.52 2.51L44.52 2.51L44.52 2.51Q44.45 2.57 44.45 2.67L44.45 2.67ZM50.33 10.23L50.33 10.23L50.33 4.46L50.33 4.46Q50.33 3.47 50.85 2.96L50.85 2.96L50.85 2.96Q51.36 2.45 52.35 2.45L52.35 2.45L53.92 2.45L53.92 2.45Q54.91 2.45 55.43 2.96L55.43 2.96L55.43 2.96Q55.94 3.47 55.94 4.46L55.94 4.46L55.94 10.23L55.94 10.23Q55.94 11.22 55.43 11.74L55.43 11.74L55.43 11.74Q54.91 12.25 53.92 12.25L53.92 12.25L52.35 12.25L52.35 12.25Q51.36 12.25 50.85 11.74L50.85 11.74L50.85 11.74Q50.33 11.22 50.33 10.23ZM52.16 4.82L52.16 9.88L52.16 9.88Q52.16 10.45 52.72 10.45L52.72 10.45L53.61 10.45L53.61 10.45Q54.17 10.45 54.17 9.88L54.17 9.88L54.17 4.82L54.17 4.82Q54.17 4.26 53.61 4.26L53.61 4.26L52.72 4.26L52.72 4.26Q52.16 4.26 52.16 4.82L52.16 4.82ZM57.33 11.97L57.33 11.97L57.33 2.73L57.33 2.73Q57.33 2.45 57.61 2.45L57.61 2.45L58.96 2.45L58.96 2.45Q59.24 2.45 59.24 2.73L59.24 2.73L59.24 6.37L61.39 2.66L61.39 2.66Q61.51 2.45 61.71 2.45L61.71 2.45L63.18 2.45L63.18 2.45Q63.34 2.45 63.40 2.55L63.40 2.55L63.40 2.55Q63.46 2.65 63.38 2.79L63.38 2.79L61.00 6.97L63.54 11.93L63.54 11.93Q63.58 12.00 63.58 12.07L63.58 12.07L63.58 12.07Q63.58 12.11 63.55 12.15L63.55 12.15L63.55 12.15Q63.50 12.25 63.33 12.25L63.33 12.25L61.84 12.25L61.84 12.25Q61.63 12.25 61.52 12.04L61.52 12.04L59.76 8.58L59.24 9.58L59.24 11.97L59.24 11.97Q59.24 12.25 58.96 12.25L58.96 12.25L57.61 12.25L57.61 12.25Q57.33 12.25 57.33 11.97Z"></path></g><!----><!----><g data-v-423bf9ae="" id="3f5547f9-1ddf-4725-b219-060347741e6b" fill="black" transform="matrix(4.854368692324311,0,0,4.854368692324311,-1.3592438238569002,121.1067919423781)"><path d="M3.96 11.69L0.73 2.80L0.28 2.80L3.99 12.95L6.93 3.79L9.87 12.95L13.58 2.80L13.13 2.80L9.90 11.69L6.93 2.45ZM24.22 2.45L19.95 12.60L20.44 12.60L21.71 9.52L26.73 9.52L28 12.60L28.49 12.60ZM24.22 3.50L26.53 9.07L21.91 9.07ZM34.86 3.21L37.38 3.21L37.38 12.60L37.80 12.60L37.80 3.21L40.32 3.21L40.32 2.80L34.86 2.80ZM48.20 7.70C48.20 6.33 48.58 5.22 49.34 4.38C50.10 3.53 51.11 3.11 52.36 3.11C53.55 3.11 54.60 3.54 55.51 4.41L55.51 3.81C54.66 3.06 53.61 2.69 52.36 2.69C51.01 2.69 49.90 3.16 49.03 4.09C48.17 5.03 47.74 6.23 47.74 7.70C47.74 9.17 48.17 10.37 49.03 11.30C49.90 12.24 51.01 12.71 52.36 12.71C53.61 12.71 54.66 12.34 55.51 11.59L55.51 11.03C54.64 11.87 53.59 12.29 52.36 12.29C51.11 12.29 50.10 11.87 49.34 11.03C48.58 10.18 48.20 9.07 48.20 7.70ZM64.89 2.80L64.89 12.60L65.31 12.60L65.31 7.62L71.54 7.62L71.54 12.60L71.96 12.60L71.96 2.80L71.54 2.80L71.54 7.18L65.31 7.18L65.31 2.80ZM91.70 3.21L94.22 3.21L94.22 12.60L94.64 12.60L94.64 3.21L97.16 3.21L97.16 2.80L91.70 2.80ZM105 7.70C105 6.38 105.41 5.29 106.22 4.41C107.03 3.53 108.06 3.09 109.30 3.09C110.54 3.09 111.57 3.53 112.38 4.41C113.19 5.29 113.60 6.38 113.60 7.70C113.60 9.02 113.19 10.11 112.38 10.99C111.57 11.87 110.54 12.31 109.30 12.31C108.06 12.31 107.03 11.87 106.22 10.99C105.41 10.11 105 9.02 105 7.70ZM104.58 7.70C104.58 9.16 105.03 10.36 105.92 11.30C106.81 12.24 107.94 12.71 109.30 12.71C110.66 12.71 111.79 12.24 112.68 11.30C113.57 10.36 114.02 9.16 114.02 7.70C114.02 6.24 113.57 5.04 112.68 4.10C111.79 3.16 110.66 2.69 109.30 2.69C107.94 2.69 106.81 3.16 105.92 4.10C105.03 5.04 104.58 6.24 104.58 7.70ZM131.66 7.63L127.60 7.63L127.60 8.11L131.18 8.11C131.10 9.32 130.70 10.32 129.99 11.09C129.28 11.87 128.34 12.26 127.18 12.26C125.89 12.26 124.85 11.82 124.05 10.94C123.26 10.06 122.86 8.98 122.86 7.70C122.86 6.40 123.27 5.32 124.07 4.45C124.88 3.57 125.92 3.14 127.18 3.14C127.92 3.14 128.62 3.31 129.25 3.65C129.89 4.00 130.41 4.47 130.79 5.05L131.18 4.75C130.74 4.11 130.18 3.61 129.50 3.24C128.82 2.87 128.04 2.69 127.18 2.69C125.82 2.69 124.69 3.17 123.78 4.13C122.87 5.09 122.42 6.28 122.42 7.70C122.42 9.12 122.87 10.31 123.78 11.27C124.69 12.23 125.82 12.71 127.18 12.71C128.55 12.71 129.64 12.22 130.44 11.23C131.25 10.25 131.66 9.05 131.66 7.63ZM141.11 7.48L145.45 7.48L145.45 7.08L141.11 7.08L141.11 3.21L145.73 3.21L145.73 2.80L140.69 2.80L140.69 12.60L145.73 12.60L145.73 12.19L141.11 12.19ZM154.13 3.21L156.65 3.21L156.65 12.60L157.07 12.60L157.07 3.21L159.59 3.21L159.59 2.80L154.13 2.80ZM168.13 2.80L168.13 12.60L168.55 12.60L168.55 7.62L174.78 7.62L174.78 12.60L175.20 12.60L175.20 2.80L174.78 2.80L174.78 7.18L168.55 7.18L168.55 2.80ZM185.14 7.48L189.48 7.48L189.48 7.08L185.14 7.08L185.14 3.21L189.76 3.21L189.76 2.80L184.72 2.80L184.72 12.60L189.76 12.60L189.76 12.19L185.14 12.19ZM199.56 2.80ZM199.14 2.80L199.14 12.60L199.56 12.60L199.56 8.48L201.11 8.48L204.23 12.60L204.78 12.60L201.59 8.47C202.48 8.41 203.20 8.15 203.73 7.67C204.27 7.20 204.54 6.52 204.54 5.64C204.54 4.71 204.24 4.00 203.63 3.52C203.02 3.04 202.23 2.80 201.24 2.80ZM199.56 3.21L201.24 3.21C202.10 3.21 202.80 3.41 203.32 3.83C203.84 4.24 204.11 4.85 204.11 5.64C204.11 6.44 203.84 7.04 203.32 7.45C202.80 7.87 202.10 8.08 201.24 8.08L199.56 8.08ZM214.48 11.16L212.90 14.69L213.11 14.81L214.90 11.34ZM238.39 11.69L235.16 2.80L234.71 2.80L238.42 12.95L241.36 3.79L244.30 12.95L248.01 2.80L247.56 2.80L244.33 11.69L241.36 2.45ZM255.85 7.70C255.85 6.38 256.26 5.29 257.07 4.41C257.88 3.53 258.91 3.09 260.15 3.09C261.39 3.09 262.42 3.53 263.23 4.41C264.04 5.29 264.45 6.38 264.45 7.70C264.45 9.02 264.04 10.11 263.23 10.99C262.42 11.87 261.39 12.31 260.15 12.31C258.91 12.31 257.88 11.87 257.07 10.99C256.26 10.11 255.85 9.02 255.85 7.70ZM255.43 7.70C255.43 9.16 255.88 10.36 256.77 11.30C257.66 12.24 258.79 12.71 260.15 12.71C261.51 12.71 262.64 12.24 263.53 11.30C264.42 10.36 264.87 9.16 264.87 7.70C264.87 6.24 264.42 5.04 263.53 4.10C262.64 3.16 261.51 2.69 260.15 2.69C258.79 2.69 257.66 3.16 256.77 4.10C255.88 5.04 255.43 6.24 255.43 7.70ZM274.25 2.80ZM273.83 2.80L273.83 12.60L274.25 12.60L274.25 8.48L275.80 8.48L278.92 12.60L279.47 12.60L276.28 8.47C277.17 8.41 277.89 8.15 278.42 7.67C278.96 7.20 279.23 6.52 279.23 5.64C279.23 4.71 278.93 4.00 278.32 3.52C277.71 3.04 276.92 2.80 275.93 2.80ZM274.25 3.21L275.93 3.21C276.79 3.21 277.49 3.41 278.01 3.83C278.53 4.24 278.80 4.85 278.80 5.64C278.80 6.44 278.53 7.04 278.01 7.45C277.49 7.87 276.79 8.08 275.93 8.08L274.25 8.08ZM288.29 2.80ZM287.87 2.80L287.87 12.60L288.29 12.60L288.29 8.48L289.84 8.48L292.96 12.60L293.51 12.60L290.32 8.47C291.21 8.41 291.93 8.15 292.47 7.67C293.00 7.20 293.27 6.52 293.27 5.64C293.27 4.71 292.97 4.00 292.36 3.52C291.76 3.04 290.96 2.80 289.97 2.80ZM288.29 3.21L289.97 3.21C290.84 3.21 291.53 3.41 292.05 3.83C292.58 4.24 292.84 4.85 292.84 5.64C292.84 6.44 292.58 7.04 292.05 7.45C291.53 7.87 290.84 8.08 289.97 8.08L288.29 8.08ZM307.29 2.80L304.28 8.16L301.39 2.80L300.86 2.80L304.05 8.62L304.05 12.60L304.50 12.60L304.50 8.61L307.82 2.80ZM315.10 9.45L317.90 9.45L317.90 9.10L315.10 9.10ZM326.65 7.64L330.57 7.64L330.57 7.24L326.65 7.24L326.65 3.21L330.71 3.21L330.71 2.80L326.23 2.80L326.23 12.60L326.65 12.60ZM340.23 2.80ZM339.81 2.80L339.81 12.60L340.23 12.60L340.23 8.48L341.78 8.48L344.90 12.60L345.45 12.60L342.26 8.47C343.15 8.41 343.87 8.15 344.41 7.67C344.94 7.20 345.21 6.52 345.21 5.64C345.21 4.71 344.91 4.00 344.30 3.52C343.70 3.04 342.90 2.80 341.91 2.80ZM340.23 3.21L341.91 3.21C342.78 3.21 343.47 3.41 343.99 3.83C344.52 4.24 344.78 4.85 344.78 5.64C344.78 6.44 344.52 7.04 343.99 7.45C343.47 7.87 342.78 8.08 341.91 8.08L340.23 8.08ZM354.27 7.48L358.61 7.48L358.61 7.08L354.27 7.08L354.27 3.21L358.89 3.21L358.89 2.80L353.85 2.80L353.85 12.60L358.89 12.60L358.89 12.19L354.27 12.19ZM368.69 7.48L373.03 7.48L373.03 7.08L368.69 7.08L368.69 3.21L373.31 3.21L373.31 2.80L368.27 2.80L368.27 12.60L373.31 12.60L373.31 12.19L368.69 12.19Z"></path></g></svg>